<?xml version="1.0" encoding="UTF-8" standalone="no"?>
<svg width="268px" height="106px" viewBox="0 0 268 106" version="1.1" xmlns="http://www.w3.org/2000/svg" xmlns:xlink="http://www.w3.org/1999/xlink" xmlns:sketch="http://www.bohemiancoding.com/sketch/ns">
    <!-- Generator: Sketch Beta 3.3.3 (12072) - http://www.bohemiancoding.com/sketch -->
    <title>Group</title>
    <desc>Created with Sketch Beta.</desc>
    <defs>
        <path id="path-1" d="M0.48,0.88 L10.48,0.88 L10.48,34.16 C10.48,36.0800096 10.5733324,38.0266568 10.76,40 C10.9466676,41.9733432 11.4799956,43.7466588 12.36,45.32 C13.2400044,46.8933412 14.5733244,48.1866616 16.36,49.2 C18.1466756,50.2133384 20.6666504,50.72 23.92,50.72 C27.1733496,50.72 29.6933244,50.2133384 31.48,49.2 C33.2666756,48.1866616 34.5999956,46.8933412 35.48,45.32 C36.3600044,43.7466588 36.8933324,41.9733432 37.08,40 C37.2666676,38.0266568 37.36,36.0800096 37.36,34.16 L37.36,0.88 L47.36,0.88 L47.36,37.44 C47.36,41.1200184 46.8000056,44.3199864 45.68,47.04 C44.5599944,49.7600136 42.9733436,52.0399908 40.92,53.88 C38.8666564,55.7200092 36.4000144,57.0933288 33.52,58 C30.6399856,58.9066712 27.4400176,59.36 23.92,59.36 C20.3999824,59.36 17.2000144,58.9066712 14.32,58 C11.4399856,57.0933288 8.9733436,55.7200092 6.92,53.88 C4.8666564,52.0399908 3.2800056,49.7600136 2.16,47.04 C1.0399944,44.3199864 0.48,41.1200184 0.48,37.44 L0.48,0.88 Z"></path>
    </defs>
    <g id="Page-1" stroke="none" stroke-width="1" fill="none" fill-rule="evenodd" sketch:type="MSPage">
        <g id="Group-Copy" sketch:type="MSLayerGroup" transform="translate(-255.000000, -143.000000)">
            <g id="Group" transform="translate(255.000000, 143.000000)">
                <path d="M22.36,0.88 L33,0.88 L55,58 L44.28,58 L38.92,42.88 L16.12,42.88 L10.76,58 L0.44,58 L22.36,0.88 Z" id="Path" fill="#FFFFFF" sketch:type="MSShapeGroup"></path>
                <path d="M18.84,35.28 L36.28,35.28 L27.72,10.72 L27.48,10.72 L18.84,35.28 Z" id="Path" fill="#181E26" sketch:type="MSShapeGroup"></path>
                <path d="M59.16,16.64 L67.8,16.64 L67.8,22.72 L67.96,22.88 C69.3466736,20.5866552 71.1599888,18.7866732 73.4,17.48 C75.6400112,16.1733268 78.1199864,15.52 80.84,15.52 C85.373356,15.52 88.9466536,16.6933216 91.56,19.04 C94.1733464,21.3866784 95.48,24.9066432 95.48,29.6 L95.48,58 L86.36,58 L86.36,32 C86.2533328,28.7466504 85.5600064,26.386674 84.28,24.92 C82.9999936,23.453326 81.0000136,22.72 78.28,22.72 C76.7333256,22.72 75.3466728,22.9999972 74.12,23.56 C72.8933272,24.1200028 71.8533376,24.8933284 71,25.88 C70.1466624,26.8666716 69.4800024,28.02666 69,29.36 C68.5199976,30.69334 68.28,32.1066592 68.28,33.6 L68.28,58 L59.16,58 L59.16,16.64 Z" id="Path" fill="#FFFFFF" sketch:type="MSShapeGroup"></path>
                <path d="M100.92,16.64 L107.8,16.64 L107.8,4.24 L116.92,4.24 L116.92,16.64 L125.16,16.64 L125.16,23.44 L116.92,23.44 L116.92,45.52 C116.92,46.4800048 116.96,47.3066632 117.04,48 C117.12,48.6933368 117.306665,49.2799976 117.6,49.76 C117.893335,50.2400024 118.33333,50.5999988 118.92,50.84 C119.50667,51.0800012 120.306662,51.2 121.32,51.2 C121.960003,51.2 122.599997,51.1866668 123.24,51.16 C123.880003,51.1333332 124.519997,51.0400008 125.16,50.88 L125.16,57.92 C124.146662,58.0266672 123.160005,58.1333328 122.2,58.24 C121.239995,58.3466672 120.253338,58.4 119.24,58.4 C116.839988,58.4 114.906674,58.1733356 113.44,57.72 C111.973326,57.2666644 110.826671,56.6000044 110,55.72 C109.173329,54.8399956 108.613335,53.73334 108.32,52.4 C108.026665,51.06666 107.853334,49.5466752 107.8,47.84 L107.8,23.44 L100.92,23.44 L100.92,16.64 Z" id="Path" fill="#FFFFFF" sketch:type="MSShapeGroup"></path>
                <path d="M130.84,31.92 L154.12,31.92 L154.12,40.56 L130.84,40.56 L130.84,31.92 Z" id="Path" fill="#FFFFFF" sketch:type="MSShapeGroup"></path>
                <g id="Rectangle-30-+-Rectangle-29-+-Rectangle-28-+-Rectangle-27-+-Rectangle-26-+-Rectangle-25-Copy-+-Rectangle-25-Mask" transform="translate(163.000000, 0.000000)">
                    <mask id="mask-2" sketch:name="Mask" fill="white">
                        <use xlink:href="#path-1"></use>
                    </mask>
                    <use id="Mask" fill="#FFFFFF" sketch:type="MSShapeGroup" xlink:href="#path-1"></use>
                    <rect id="Rectangle-30" fill="#B7E2E8" sketch:type="MSShapeGroup" mask="url(#mask-2)" x="-6" y="54" width="58" height="9"></rect>
                    <rect id="Rectangle-29" fill="#B7E2E8" sketch:type="MSShapeGroup" mask="url(#mask-2)" x="-6" y="45" width="58" height="9"></rect>
                    <rect id="Rectangle-28" fill="#F5A623" sketch:type="MSShapeGroup" mask="url(#mask-2)" x="-6" y="36" width="58" height="9"></rect>
                    <rect id="Rectangle-27" fill="#70C19A" sketch:type="MSShapeGroup" mask="url(#mask-2)" x="-6" y="27" width="58" height="9"></rect>
                    <rect id="Rectangle-26" fill="#A7D7BA" sketch:type="MSShapeGroup" mask="url(#mask-2)" x="-6" y="18" width="58" height="9"></rect>
                    <rect id="Rectangle-25-Copy" fill="#FA907F" sketch:type="MSShapeGroup" mask="url(#mask-2)" x="-6" y="9" width="58" height="9"></rect>
                    <rect id="Rectangle-25" fill="#ED6243" sketch:type="MSShapeGroup" mask="url(#mask-2)" x="-6" y="0" width="58" height="9"></rect>
                </g>
                <path d="M216.92,0.88 L228.84,0.88 L241.8,21.04 L255.32,0.88 L266.52,0.88 L247.64,28.4 L267.88,58 L255.72,58 L241.48,36.16 L227,58 L215.56,58 L235.8,28.4 L216.92,0.88 Z" id="Path" fill="#FFFFFF" sketch:type="MSShapeGroup"></path>
                <path d="M29.32,105.414 C28.5919964,104.80733 27.829004,104.240336 27.031,103.713 C26.232996,103.185664 25.4093376,102.768002 24.56,102.46 L25.12,101.746 C25.5960024,101.998001 26.036998,102.240665 26.443,102.474 C26.849002,102.707334 27.2433314,102.945332 27.626,103.188 C28.0086686,103.430668 28.3913314,103.684999 28.774,103.951 C29.1566686,104.217001 29.5579979,104.508665 29.978,104.826 L29.32,105.414 Z M24.686,98.134 C24.5926662,98.2366672 24.5273335,98.5913303 24.49,99.198 C24.4619999,99.5993353 24.4340001,99.9329987 24.406,100.199 C24.3779999,100.465001 24.3406669,100.698332 24.294,100.899 C24.2473331,101.099668 24.1960003,101.286332 24.14,101.459 C24.0839997,101.631668 24.0140004,101.829999 23.93,102.054 C23.8179994,102.352668 23.6220014,102.667665 23.342,102.999 C23.0619986,103.330335 22.7073355,103.654665 22.278,103.972 C21.8486645,104.289335 21.3540028,104.590332 20.794,104.875 C20.2339972,105.159668 19.6180034,105.409332 18.946,105.624 C18.8619996,105.381332 18.7546673,105.197001 18.624,105.071 C18.4933327,104.944999 18.292668,104.830667 18.022,104.728 C18.6193363,104.634666 19.1933306,104.483001 19.744,104.273 C20.2946694,104.062999 20.7963311,103.825001 21.249,103.559 C21.7016689,103.292999 22.0889984,103.008335 22.411,102.705 C22.7330016,102.401665 22.9639993,102.110001 23.104,101.83 C23.3280011,101.381998 23.4866662,100.84067 23.58,100.206 C23.6733338,99.5713302 23.6593339,98.7640049 23.538,97.784 C23.7433344,97.8213335 23.9206659,97.8446666 24.07,97.854 C24.2193341,97.8633334 24.3733325,97.8633334 24.532,97.854 C24.6533339,97.8446666 24.7279999,97.8656664 24.756,97.917 C24.7840001,97.9683336 24.760667,98.0406662 24.686,98.134 L24.686,98.134 Z M23.398,96.272 L25.526,96.272 C26.0766694,96.272 26.5339982,96.2673334 26.898,96.258 C27.2620018,96.2486666 27.5583322,96.2370001 27.787,96.223 C28.0156678,96.2089999 28.2419989,96.1926668 28.466,96.174 C28.4473332,96.3046673 28.4356667,96.4796656 28.431,96.699 C28.4263333,96.9183344 28.424,97.1353323 28.424,97.35 L28.424,101.396 C28.424,101.648001 28.4286666,101.892999 28.438,102.131 C28.4473334,102.369001 28.4613332,102.590666 28.48,102.796 L27.5,102.796 L27.5,96.916 L20.794,96.916 L20.794,103.048 L19.814,103.048 C19.8420001,102.814665 19.8606666,102.586001 19.87,102.362 C19.8793334,102.137999 19.884,101.900001 19.884,101.648 L19.884,97.35 C19.884,97.1353323 19.8816667,96.9183344 19.877,96.699 C19.8723333,96.4796656 19.8606668,96.3046673 19.842,96.174 C20.1593349,96.2020001 20.5069981,96.2229999 20.885,96.237 C21.2630019,96.2510001 21.7553303,96.2626666 22.362,96.272 C22.6046679,95.9266649 22.8286656,95.5766684 23.034,95.222 C23.2393344,94.8673316 23.3886662,94.5406682 23.482,94.242 C22.9126638,94.242 22.3923357,94.2443333 21.921,94.249 C21.4496643,94.2536667 21.0086687,94.2629999 20.598,94.277 C20.1873313,94.2910001 19.8000018,94.3049999 19.436,94.319 C19.0719982,94.3330001 18.7173351,94.3539999 18.372,94.382 L18.372,93.444 C18.7453352,93.4720001 19.1233314,93.4929999 19.506,93.507 C19.8886686,93.5210001 20.3016644,93.5349999 20.745,93.549 C21.1883355,93.5630001 21.680664,93.5723333 22.222,93.577 C22.763336,93.5816667 23.3839965,93.584 24.084,93.584 C24.7840035,93.584 25.3999973,93.5816667 25.932,93.577 C26.4640027,93.5723333 26.9516644,93.5630001 27.395,93.549 C27.8383355,93.5349999 28.2466648,93.5210001 28.62,93.507 C28.9933352,93.4929999 29.3713314,93.4720001 29.754,93.444 L29.754,94.382 C29.3993316,94.3539999 29.0423351,94.3330001 28.683,94.319 C28.3236649,94.3049999 27.9386687,94.2910001 27.528,94.277 C27.1173313,94.2629999 26.6670024,94.2536667 26.177,94.249 C25.6869975,94.2443333 25.1293365,94.242 24.504,94.242 C24.3826661,94.438001 24.2753338,94.6199992 24.182,94.788 C24.0886662,94.9560008 23.9976671,95.1193325 23.909,95.278 C23.8203329,95.4366675 23.7363337,95.5953325 23.657,95.754 C23.5776663,95.9126675 23.4913338,96.0853324 23.398,96.272 L23.398,96.272 Z M66.128,101.06 L68.816,101.06 L68.816,99.352 L66.128,99.352 L66.128,101.06 Z M68.816,103.412 L68.816,101.676 L66.128,101.676 L66.128,103.412 L68.816,103.412 Z M71.63,97.07 L69.586,97.07 L69.586,103.412 L71.63,103.412 L71.63,97.07 Z M63.342,97.07 L63.342,103.412 L65.372,103.412 L65.372,97.07 L63.342,97.07 Z M66.128,97.07 L66.128,98.666 L68.816,98.666 L68.816,97.07 L66.128,97.07 Z M66.562,94.242 C65.4793279,94.242 64.5156709,94.2513332 63.671,94.27 C62.8263291,94.2886668 62.1006697,94.3259997 61.494,94.382 L61.494,93.444 C61.8020015,93.4626668 62.1403315,93.4813332 62.509,93.5 C62.8776685,93.5186668 63.2999976,93.5326666 63.776,93.542 C64.2520024,93.5513334 64.7956636,93.5583333 65.407,93.563 C66.0183364,93.5676667 66.7159961,93.57 67.5,93.57 C68.4053379,93.57 69.1636636,93.5676667 69.775,93.563 C70.3863364,93.5583333 70.9089978,93.5513334 71.343,93.542 C71.7770022,93.5326666 72.159665,93.5210001 72.491,93.507 C72.822335,93.4929999 73.1606649,93.4720001 73.506,93.444 L73.506,94.382 C73.1606649,94.3539999 72.8270016,94.3306668 72.505,94.312 C72.1829984,94.2933332 71.8050022,94.2793334 71.371,94.27 C70.9369978,94.2606666 70.4143364,94.2536667 69.803,94.249 C69.1916636,94.2443333 68.4286712,94.242 67.514,94.242 C67.4299996,94.5406682 67.3133341,94.8836647 67.164,95.271 C67.0146659,95.6583353 66.8653341,96.0199983 66.716,96.356 L70.118,96.356 C70.584669,96.356 71.0396645,96.3513334 71.483,96.342 C71.9263356,96.3326666 72.2693321,96.3186668 72.512,96.3 C72.4933332,96.6266683 72.4816667,96.9113321 72.477,97.154 C72.4723333,97.3966679 72.47,97.6439987 72.47,97.896 L72.47,103.034 C72.47,103.426002 72.4746666,103.801665 72.484,104.161 C72.4933334,104.520335 72.5119999,104.881998 72.54,105.246 L71.63,105.246 L71.63,104.098 L63.342,104.098 L63.342,105.358 L62.446,105.358 C62.4646668,105.059332 62.4809999,104.700002 62.495,104.28 C62.5090001,103.859998 62.516,103.454002 62.516,103.062 L62.516,97.896 C62.516,97.625332 62.5090001,97.3663346 62.495,97.119 C62.4809999,96.8716654 62.4646668,96.5986682 62.446,96.3 C62.5486672,96.3093334 62.6723326,96.3186666 62.817,96.328 C62.9616674,96.3373334 63.1576654,96.3443333 63.405,96.349 C63.6523346,96.3536667 63.971998,96.356 64.364,96.356 L65.848,96.356 C65.9973341,96.0106649 66.1349994,95.6466686 66.261,95.264 C66.3870006,94.8813314 66.487333,94.5406682 66.562,94.242 L66.562,94.242 Z M115.732,96.286 L115.732,94.116 L114.234,94.116 L114.234,96.286 L115.732,96.286 Z M111.924,96.286 L113.548,96.286 L113.548,94.116 L111.924,94.116 L111.924,96.286 Z M111.21,94.116 L109.74,94.116 L109.74,96.286 L111.21,96.286 L111.21,94.116 Z M106.968,96.188 C106.753332,95.721331 106.496668,95.2663355 106.198,94.823 C105.899332,94.3796644 105.572668,93.9713352 105.218,93.598 L105.806,93.094 C106.179335,93.4953353 106.517665,93.8966647 106.821,94.298 C107.124335,94.6993353 107.439332,95.1659973 107.766,95.698 L106.968,96.188 Z M107.332,102.908 C107.462667,102.982667 107.632999,103.087666 107.843,103.223 C108.053001,103.358334 108.339998,103.561332 108.704,103.832 C108.816001,103.916 109.042332,103.993 109.383,104.063 C109.723668,104.133 110.23233,104.179667 110.909,104.203 C111.58567,104.226333 112.455995,104.219334 113.52,104.182 C114.584005,104.144666 115.885992,104.056001 117.426,103.916 C117.276666,104.074667 117.185667,104.228666 117.153,104.378 C117.120333,104.527334 117.108667,104.723332 117.118,104.966 C115.87666,104.984667 114.810338,104.996333 113.919,105.001 C113.027662,105.005667 112.269336,105.003333 111.644,104.994 C111.018664,104.984667 110.510002,104.966 110.118,104.938 C109.725998,104.91 109.406335,104.872667 109.159,104.826 C108.911665,104.779333 108.718001,104.723334 108.578,104.658 C108.437999,104.592666 108.312001,104.518 108.2,104.434 C107.863998,104.181999 107.588668,103.995334 107.374,103.874 C107.159332,103.752666 106.954001,103.715333 106.758,103.762 C106.561999,103.808667 106.352001,103.941666 106.128,104.161 C105.903999,104.380334 105.619335,104.699998 105.274,105.12 C105.171333,104.923999 105.059334,104.763001 104.938,104.637 C104.816666,104.510999 104.690667,104.410667 104.56,104.336 C105.082669,103.878664 105.497998,103.538001 105.806,103.314 C106.114002,103.089999 106.361332,102.940667 106.548,102.866 L106.548,98.092 C106.081331,98.092 105.705668,98.0966666 105.421,98.106 C105.136332,98.1153334 104.905334,98.1293332 104.728,98.148 L104.728,97.294 C104.914668,97.3220001 105.126999,97.3453332 105.365,97.364 C105.603001,97.3826668 105.857332,97.392 106.128,97.392 L106.576,97.392 C106.697334,97.392 106.804666,97.3873334 106.898,97.378 C106.991334,97.3686666 107.077666,97.3570001 107.157,97.343 C107.236334,97.3289999 107.327333,97.3126668 107.43,97.294 C107.392666,97.5366679 107.367,97.7816654 107.353,98.029 C107.339,98.2763346 107.332,98.5866648 107.332,98.96 L107.332,102.908 Z M110.944,98.988 C110.794666,99.1466675 110.547335,99.391665 110.202,99.723 C109.856665,100.054335 109.432003,100.443998 108.928,100.892 C108.825333,100.733333 108.720334,100.609667 108.613,100.521 C108.505666,100.432333 108.363334,100.355334 108.186,100.29 C109.128671,99.6646635 109.851997,99.0836693 110.356,98.547 C110.860003,98.0103306 111.219332,97.471336 111.434,96.93 C110.817997,96.9393334 110.314002,96.9533332 109.922,96.972 C109.529998,96.9906668 109.189335,97.0139999 108.9,97.042 C108.918667,96.7153317 108.932667,96.4026682 108.942,96.104 C108.951333,95.8053318 108.956,95.5066682 108.956,95.208 C108.956,94.815998 108.951333,94.4800014 108.942,94.2 C108.932667,93.9199986 108.918667,93.6260015 108.9,93.318 C109.189335,93.3366668 109.469332,93.3553332 109.74,93.374 C110.010668,93.3926668 110.297665,93.4066666 110.601,93.416 C110.904335,93.4253334 111.228665,93.4323333 111.574,93.437 C111.919335,93.4416667 112.311331,93.444 112.75,93.444 C113.571337,93.444 114.282997,93.4346668 114.885,93.416 C115.487003,93.3973332 116.053997,93.3646669 116.586,93.318 C116.558,93.5046676 116.537,93.7473318 116.523,94.046 C116.509,94.3446682 116.502,94.7319976 116.502,95.208 C116.502,95.5533351 116.509,95.8799985 116.523,96.188 C116.537,96.4960015 116.553333,96.7806654 116.572,97.042 C116.347999,97.0233332 116.093668,97.0046668 115.809,96.986 C115.524332,96.9673332 115.190669,96.9533334 114.808,96.944 C114.425331,96.9346666 113.982003,96.9276667 113.478,96.923 C112.973997,96.9183333 112.386003,96.916 111.714,96.916 C111.835334,96.9720003 111.956666,97.0256664 112.078,97.077 C112.199334,97.1283336 112.302,97.1726665 112.386,97.21 C112.479334,97.2566669 112.519,97.3126663 112.505,97.378 C112.491,97.4433337 112.423334,97.4993331 112.302,97.546 C112.246,97.5646668 112.159667,97.6299994 112.043,97.742 C111.926333,97.8540006 111.746668,98.0546652 111.504,98.344 L113.94,98.344 C114.276002,98.344 114.567665,98.3416667 114.815,98.337 C115.062335,98.3323333 115.283999,98.3253334 115.48,98.316 C115.676001,98.3066666 115.860332,98.2950001 116.033,98.281 C116.205668,98.2669999 116.389999,98.2506668 116.586,98.232 C116.231332,99.0346707 115.820669,99.7346637 115.354,100.332 C114.887331,100.929336 114.35767,101.447331 113.765,101.886 C113.17233,102.324669 112.50967,102.697998 111.777,103.006 C111.04433,103.314002 110.230004,103.579999 109.334,103.804 C109.287333,103.645333 109.219667,103.512334 109.131,103.405 C109.042333,103.297666 108.904668,103.178667 108.718,103.048 C109.483337,102.945333 110.20433,102.777334 110.881,102.544 C111.55767,102.310665 112.175997,102.026002 112.736,101.69 C112.530666,101.503332 112.353334,101.340001 112.204,101.2 C112.054666,101.059999 111.912334,100.934001 111.777,100.822 C111.641666,100.709999 111.508667,100.600334 111.378,100.493 C111.247333,100.385666 111.102667,100.271334 110.944,100.15 L111.532,99.604 C111.672001,99.7253339 111.809666,99.8443327 111.945,99.961 C112.080334,100.077667 112.217999,100.203666 112.358,100.339 C112.498001,100.474334 112.642666,100.618999 112.792,100.773 C112.941334,100.927001 113.109332,101.101999 113.296,101.298 C113.744002,100.971332 114.131332,100.616669 114.458,100.234 C114.784668,99.8513314 115.045999,99.4360022 115.242,98.988 L110.944,98.988 Z M158.784,94.116 L155.466,94.116 L155.466,95.726 L158.784,95.726 L158.784,94.116 Z M159.666,96.426 C159.329998,96.4073332 158.961335,96.3933334 158.56,96.384 C158.158665,96.3746666 157.645336,96.37 157.02,96.37 L156.194,96.37 C155.960665,96.37 155.748334,96.3746666 155.557,96.384 C155.365666,96.3933334 155.190667,96.4026666 155.032,96.412 C154.873333,96.4213334 154.710001,96.4306666 154.542,96.44 C154.57,96.2066655 154.591,95.9686679 154.605,95.726 C154.619,95.4833321 154.626,95.2126682 154.626,94.914 C154.626,94.3259971 154.598,93.8126689 154.542,93.374 C154.719334,93.3926668 154.887333,93.4043333 155.046,93.409 C155.204667,93.4136667 155.377332,93.4206666 155.564,93.43 C155.750668,93.4393334 155.960665,93.444 156.194,93.444 L157.02,93.444 C157.645336,93.444 158.158665,93.4370001 158.56,93.423 C158.961335,93.4089999 159.329998,93.3926668 159.666,93.374 C159.647333,93.5980011 159.633333,93.8359987 159.624,94.088 C159.614667,94.3400013 159.61,94.6153318 159.61,94.914 C159.61,95.2033348 159.614667,95.4739987 159.624,95.726 C159.633333,95.9780013 159.647333,96.2113323 159.666,96.426 L159.666,96.426 Z M155.494,99.59 L155.494,100.878 L158.826,100.878 L158.826,99.59 L155.494,99.59 Z M158.826,102.516 L158.826,101.522 L155.494,101.522 L155.494,102.922 L158.826,102.516 Z M154.668,97.756 C154.481332,97.756 154.290001,97.7629999 154.094,97.777 C153.897999,97.7910001 153.674001,97.8166665 153.422,97.854 L153.422,97.014 C153.702001,97.0420001 154.163997,97.0629999 154.808,97.077 C155.452003,97.0910001 156.240662,97.098 157.174,97.098 C158.107338,97.098 158.89833,97.0910001 159.547,97.077 C160.19567,97.0629999 160.664665,97.0420001 160.954,97.014 L160.954,97.854 C160.813999,97.8259999 160.690334,97.8073334 160.583,97.798 C160.475666,97.7886666 160.375334,97.7793334 160.282,97.77 C160.188666,97.7606666 160.093,97.756 159.995,97.756 L159.638,97.756 L159.638,102.418 C159.815334,102.39 159.964666,102.364333 160.086,102.341 C160.207334,102.317667 160.314666,102.294333 160.408,102.271 C160.501334,102.247667 160.587666,102.224333 160.667,102.201 C160.746334,102.177667 160.832666,102.147334 160.926,102.11 L160.982,102.964 C160.757999,102.982667 160.555001,103.001333 160.373,103.02 C160.190999,103.038667 159.946002,103.066666 159.638,103.104 C159.638,103.71067 159.642667,104.186665 159.652,104.532 C159.661333,104.877335 159.675333,105.171332 159.694,105.414 L158.784,105.414 C158.793333,105.171332 158.802667,104.868002 158.812,104.504 C158.821333,104.139998 158.826,103.706003 158.826,103.202 L155.55,103.636 C155.419333,103.654667 155.288667,103.675667 155.158,103.699 C155.027333,103.722333 154.882667,103.750333 154.724,103.783 C154.565333,103.815667 154.390334,103.855333 154.199,103.902 C154.007666,103.948667 153.781335,104.004666 153.52,104.07 L153.282,103.09 C153.459334,103.09 153.645999,103.085333 153.842,103.076 C154.038001,103.066667 154.313332,103.048 154.668,103.02 L154.668,97.756 Z M155.494,97.756 L155.494,98.946 L158.826,98.946 L158.826,97.756 L155.494,97.756 Z M150.244,95.208 C149.749331,95.208 149.343335,95.2173332 149.026,95.236 C148.708665,95.2546668 148.442668,95.2826665 148.228,95.32 L148.228,94.396 C148.452001,94.4333335 148.738998,94.4613332 149.089,94.48 C149.439002,94.4986668 149.889331,94.508 150.44,94.508 C150.533334,94.1906651 150.608,93.9316677 150.664,93.731 C150.72,93.5303323 150.762,93.3530008 150.79,93.199 C150.818,93.0449992 150.836667,92.9050006 150.846,92.779 C150.855333,92.6529994 150.864667,92.5060008 150.874,92.338 C151.098001,92.4406672 151.298666,92.5176664 151.476,92.569 C151.653334,92.6203336 151.821333,92.6553332 151.98,92.674 C152.064,92.6833334 152.110667,92.7159997 152.12,92.772 C152.129333,92.8280003 152.096667,92.8793331 152.022,92.926 C151.966,92.9633335 151.914667,93.0099997 151.868,93.066 C151.821333,93.1220003 151.77,93.2083327 151.714,93.325 C151.658,93.4416672 151.597334,93.5956657 151.532,93.787 C151.466666,93.9783343 151.392,94.2186652 151.308,94.508 C152.036004,94.508 152.612331,94.5010001 153.037,94.487 C153.461669,94.4729999 153.809332,94.4426669 154.08,94.396 L154.08,95.32 C153.939999,95.3013332 153.786001,95.2850001 153.618,95.271 C153.449999,95.2569999 153.249335,95.2453334 153.016,95.236 C152.782666,95.2266666 152.509668,95.2196667 152.197,95.215 C151.884332,95.2103333 151.518002,95.208 151.098,95.208 C151.023333,95.4320011 150.932334,95.7003318 150.825,96.013 C150.717666,96.3256682 150.601001,96.6453317 150.475,96.972 C150.348999,97.2986683 150.225334,97.6136651 150.104,97.917 C149.982666,98.2203348 149.88,98.469999 149.796,98.666 L151.238,98.666 C151.238,98.3113316 151.235667,98.0126679 151.231,97.77 C151.226333,97.5273321 151.219333,97.3220008 151.21,97.154 C151.200667,96.9859992 151.189,96.8506672 151.175,96.748 C151.161,96.6453328 151.144667,96.5520004 151.126,96.468 C151.284667,96.5146669 151.459666,96.5519999 151.651,96.58 C151.842334,96.6080001 152.021999,96.622 152.19,96.622 C152.274,96.622 152.320667,96.6453331 152.33,96.692 C152.339333,96.7386669 152.306667,96.7806665 152.232,96.818 C152.129333,96.8740003 152.078,97.0046656 152.078,97.21 L152.078,98.666 C152.311334,98.6566666 152.511999,98.6473334 152.68,98.638 C152.848001,98.6286666 152.994999,98.6170001 153.121,98.603 C153.247001,98.5889999 153.359,98.5726668 153.457,98.554 C153.555,98.5353332 153.650666,98.5166668 153.744,98.498 L153.744,99.422 C153.529332,99.3846665 153.305335,99.3590001 153.072,99.345 C152.838666,99.3309999 152.507335,99.324 152.078,99.324 L152.078,101.368 C152.255334,101.330666 152.437332,101.286334 152.624,101.235 C152.810668,101.183666 152.985666,101.13 153.149,101.074 C153.312334,101.018 153.461666,100.966667 153.597,100.92 C153.732334,100.873333 153.842,100.826667 153.926,100.78 C153.907333,100.948001 153.898,101.111333 153.898,101.27 C153.898,101.428667 153.907333,101.577999 153.926,101.718 C153.832666,101.727333 153.739334,101.739 153.646,101.753 C153.552666,101.767 153.438334,101.788 153.303,101.816 C153.167666,101.844 153.004334,101.879 152.813,101.921 C152.621666,101.963 152.376668,102.016666 152.078,102.082 C152.078,102.726003 152.085,103.318664 152.099,103.86 C152.113,104.401336 152.143333,104.895998 152.19,105.344 L151.126,105.344 C151.163334,104.895998 151.191333,104.422336 151.21,103.923 C151.228667,103.423664 151.238,102.875336 151.238,102.278 C150.509996,102.455334 149.933669,102.604666 149.509,102.726 C149.084331,102.847334 148.727335,102.959333 148.438,103.062 C148.382,102.856666 148.323667,102.674667 148.263,102.516 C148.202333,102.357333 148.120667,102.184668 148.018,101.998 C148.251334,101.988667 148.472999,101.977 148.683,101.963 C148.893001,101.949 149.119332,101.923334 149.362,101.886 C149.604668,101.848666 149.875332,101.804334 150.174,101.753 C150.472668,101.701666 150.827331,101.634 151.238,101.55 L151.238,99.324 C150.892665,99.324 150.601001,99.3309999 150.363,99.345 C150.124999,99.3590001 149.919668,99.3753332 149.747,99.394 C149.574332,99.4126668 149.425001,99.4359999 149.299,99.464 C149.172999,99.4920001 149.054001,99.5246665 148.942,99.562 C148.923333,99.3753324 148.886,99.2026675 148.83,99.044 C148.774,98.8853325 148.704,98.7313341 148.62,98.582 C148.769334,98.4699994 148.902333,98.3533339 149.019,98.232 C149.135667,98.1106661 149.252333,97.9333345 149.369,97.7 C149.485667,97.4666655 149.611666,97.154002 149.747,96.762 C149.882334,96.369998 150.047999,95.8520032 150.244,95.208 L150.244,95.208 Z M201.92,98.498 L196.376,98.498 L196.376,99.898 L201.92,99.898 L201.92,98.498 Z M201.92,96.398 L196.376,96.398 L196.376,97.826 L201.92,97.826 L201.92,96.398 Z M197.188,101.536 C197.290667,101.582667 197.346667,101.645666 197.356,101.725 C197.365333,101.804334 197.318667,101.862666 197.216,101.9 C197.094666,101.946667 196.982667,102.014333 196.88,102.103 C196.777333,102.191667 196.665334,102.324666 196.544,102.502 C196.375999,102.754001 196.142668,103.054998 195.844,103.405 C195.545332,103.755002 195.195335,104.135331 194.794,104.546 C194.681999,104.349999 194.558334,104.205334 194.423,104.112 C194.287666,104.018666 194.098668,103.948667 193.856,103.902 C194.098668,103.761999 194.355332,103.577668 194.626,103.349 C194.896668,103.120332 195.155665,102.873001 195.403,102.607 C195.650335,102.340999 195.869666,102.072668 196.061,101.802 C196.252334,101.531332 196.39,101.284001 196.474,101.06 C196.604667,101.190667 196.728333,101.291 196.845,101.361 C196.961667,101.431 197.075999,101.489333 197.188,101.536 L197.188,101.536 Z M203.558,104.294 C203.315332,104.041999 203.084334,103.813334 202.865,103.608 C202.645666,103.402666 202.419334,103.204334 202.186,103.013 C201.952666,102.821666 201.703001,102.632668 201.437,102.446 C201.170999,102.259332 200.870002,102.054001 200.534,101.83 L201.024,101.186 C201.332002,101.382001 201.621332,101.570999 201.892,101.753 C202.162668,101.935001 202.423999,102.121666 202.676,102.313 C202.928001,102.504334 203.179999,102.702666 203.432,102.908 C203.684001,103.113334 203.949999,103.337332 204.23,103.58 L203.558,104.294 Z M197.636,95.768 C197.813334,95.4879986 197.946333,95.2220013 198.035,94.97 C198.123667,94.7179987 198.177333,94.456668 198.196,94.186 C198.364001,94.2700004 198.529666,94.3376664 198.693,94.389 C198.856334,94.4403336 198.975333,94.4706666 199.05,94.48 C199.143334,94.4893334 199.197,94.5383329 199.211,94.627 C199.225,94.7156671 199.166667,94.7926663 199.036,94.858 C198.961333,94.8953335 198.868001,94.9956658 198.756,95.159 C198.643999,95.3223341 198.527334,95.5253321 198.406,95.768 L200.156,95.768 C200.912004,95.768 201.516331,95.7610001 201.969,95.747 C202.421669,95.7329999 202.755332,95.7120001 202.97,95.684 C202.951333,95.8333341 202.935,95.9686661 202.921,96.09 C202.907,96.2113339 202.895333,96.3349994 202.886,96.461 C202.876667,96.5870006 202.869667,96.7223326 202.865,96.867 C202.860333,97.0116674 202.858,97.1773324 202.858,97.364 L202.858,98.848 C202.858,99.2026684 202.869667,99.5433317 202.893,99.87 C202.916333,100.196668 202.942,100.453332 202.97,100.64 C202.717999,100.602666 202.340003,100.572333 201.836,100.549 C201.331997,100.525667 200.627338,100.514 199.722,100.514 L199.722,104.07 C199.722,104.294001 199.698667,104.478333 199.652,104.623 C199.605333,104.767667 199.498001,104.886666 199.33,104.98 C199.161999,105.073334 198.919335,105.143333 198.602,105.19 C198.284665,105.236667 197.855336,105.264667 197.314,105.274 C197.360667,105.068666 197.353667,104.872668 197.293,104.686 C197.232333,104.499332 197.108668,104.336001 196.922,104.196 C197.304669,104.270667 197.617332,104.317333 197.86,104.336 C198.102668,104.354667 198.293999,104.347667 198.434,104.315 C198.574001,104.282333 198.669666,104.221667 198.721,104.133 C198.772334,104.044333 198.798,103.930001 198.798,103.79 L198.798,100.514 C198.275331,100.514 197.827335,100.516333 197.454,100.521 C197.080665,100.525667 196.763335,100.532667 196.502,100.542 C196.240665,100.551333 196.021334,100.563 195.844,100.577 C195.666666,100.591 195.512667,100.612 195.382,100.64 C195.41,100.453332 195.433333,100.213001 195.452,99.919 C195.470667,99.6249985 195.48,99.2680021 195.48,98.848 L195.48,97.364 C195.48,96.9906648 195.473,96.6756679 195.459,96.419 C195.445,96.162332 195.419334,95.9173345 195.382,95.684 C195.746002,95.7213335 196.497328,95.7493332 197.636,95.768 L197.636,95.768 Z M203.824,94.2 C203.693333,94.1906666 203.509001,94.1790001 203.271,94.165 C203.032999,94.1509999 202.720335,94.1393334 202.333,94.13 C201.945665,94.1206666 201.474336,94.1136667 200.919,94.109 C200.363664,94.1043333 199.698671,94.102 198.924,94.102 L194.262,94.102 C194.271333,95.2873393 194.273667,96.316329 194.269,97.189 C194.264333,98.061671 194.248,98.8269967 194.22,99.485 C194.192,100.143003 194.147667,100.716998 194.087,101.207 C194.026333,101.697002 193.942334,102.147331 193.835,102.558 C193.727666,102.968669 193.592334,103.367665 193.429,103.755 C193.265666,104.142335 193.067335,104.564664 192.834,105.022 C192.619332,104.900666 192.442001,104.819 192.302,104.777 C192.161999,104.735 191.984668,104.704667 191.77,104.686 C192.050001,104.275331 192.285666,103.890335 192.477,103.531 C192.668334,103.171665 192.829333,102.791335 192.96,102.39 C193.090667,101.988665 193.191,101.536003 193.261,101.032 C193.331,100.527997 193.377667,99.9236702 193.401,99.219 C193.424333,98.5143298 193.433667,97.6860048 193.429,96.734 C193.424333,95.7819952 193.408,94.6480066 193.38,93.332 C193.501334,93.3506668 193.694999,93.3646666 193.961,93.374 C194.227001,93.3833334 194.576998,93.3926666 195.011,93.402 C195.445002,93.4113334 195.969997,93.416 196.586,93.416 L198.742,93.416 L200.849,93.416 C201.432336,93.416 201.924665,93.4113334 202.326,93.402 C202.727335,93.3926666 203.044666,93.3833334 203.278,93.374 C203.511335,93.3646666 203.693333,93.3506668 203.824,93.332 L203.824,94.2 Z M241.108,102.138 C240.594664,102.138 240.132669,102.142667 239.722,102.152 C239.311331,102.161333 238.938002,102.173 238.602,102.187 C238.265998,102.201 237.962668,102.217333 237.692,102.236 C237.421332,102.254667 237.164668,102.273333 236.922,102.292 L236.922,101.354 C237.164668,101.372667 237.421332,101.391333 237.692,101.41 C237.962668,101.428667 238.265998,101.445 238.602,101.459 C238.938002,101.473 239.311331,101.484667 239.722,101.494 C240.132669,101.503333 240.594664,101.508 241.108,101.508 C241.098667,101.097331 241.087,100.782334 241.073,100.563 C241.059,100.343666 241.038,100.150001 241.01,99.982 C241.224668,100.01 241.415999,100.031 241.584,100.045 C241.752001,100.059 241.915333,100.066 242.074,100.066 C242.232667,100.066 242.314333,100.096333 242.319,100.157 C242.323667,100.217667 242.260667,100.299333 242.13,100.402 C242.074,100.448667 242.029667,100.516333 241.997,100.605 C241.964333,100.693667 241.948,100.789333 241.948,100.892 L241.948,101.508 C242.480003,101.508 242.960665,101.505667 243.39,101.501 C243.819335,101.496333 244.206665,101.487 244.552,101.473 C244.897335,101.459 245.209999,101.442667 245.49,101.424 C245.770001,101.405333 246.031332,101.382 246.274,101.354 L246.274,102.292 C245.779331,102.245333 245.175004,102.208 244.461,102.18 C243.746996,102.152 242.909338,102.138 241.948,102.138 L241.948,103.986 C242.601337,103.986 243.193997,103.981333 243.726,103.972 C244.258003,103.962667 244.750331,103.951 245.203,103.937 C245.655669,103.923 246.075665,103.904333 246.463,103.881 C246.850335,103.857667 247.225998,103.832 247.59,103.804 L247.59,104.826 C247.207331,104.798 246.808335,104.774667 246.393,104.756 C245.977665,104.737333 245.529669,104.721 245.049,104.707 C244.568331,104.693 244.036336,104.681333 243.453,104.672 C242.869664,104.662667 242.21867,104.658 241.5,104.658 C240.78133,104.658 240.130336,104.662667 239.547,104.672 C238.963664,104.681333 238.431669,104.693 237.951,104.707 C237.470331,104.721 237.022335,104.737333 236.607,104.756 C236.191665,104.774667 235.792669,104.798 235.41,104.826 L235.41,103.804 C235.774002,103.832 236.151998,103.857667 236.544,103.881 C236.936002,103.904333 237.360664,103.923 237.818,103.937 C238.275336,103.951 238.772331,103.962667 239.309,103.972 C239.845669,103.981333 240.44533,103.986 241.108,103.986 L241.108,102.138 Z M246.988,93.206 C246.866666,93.2713337 246.806,93.3973324 246.806,93.584 L246.806,98.932 C246.806,99.1933346 246.785,99.4149991 246.743,99.597 C246.701,99.7790009 246.610001,99.9283327 246.47,100.045 C246.329999,100.161667 246.127001,100.250333 245.861,100.311 C245.594999,100.371667 245.233336,100.406667 244.776,100.416 C244.794667,100.229332 244.785334,100.066001 244.748,99.926 C244.710666,99.7859993 244.612667,99.6273342 244.454,99.45 C244.790002,99.5153337 245.060666,99.5526666 245.266,99.562 C245.471334,99.5713334 245.629999,99.5503336 245.742,99.499 C245.854001,99.4476664 245.928666,99.3683339 245.966,99.261 C246.003334,99.1536661 246.022,99.0160008 246.022,98.848 L246.022,95.096 C246.022,94.6013309 246.010333,94.1440021 245.987,93.724 C245.963667,93.3039979 245.938,92.996001 245.91,92.8 C246.096668,92.8466669 246.259999,92.8793332 246.4,92.898 C246.540001,92.9166668 246.698666,92.9166668 246.876,92.898 C247.006667,92.8886666 247.083667,92.9236663 247.107,93.003 C247.130333,93.0823337 247.090667,93.1499997 246.988,93.206 L246.988,93.206 Z M244.594,94.102 C244.491333,94.1673337 244.44,94.2933324 244.44,94.48 L244.44,96.72 C244.44,96.990668 244.449333,97.3103315 244.468,97.679 C244.486667,98.0476685 244.51,98.3953317 244.538,98.722 L243.614,98.722 C243.632667,98.5539992 243.649,98.3976674 243.663,98.253 C243.677,98.1083326 243.686333,97.9590008 243.691,97.805 C243.695667,97.6509992 243.700333,97.4876675 243.705,97.315 C243.709667,97.1423325 243.712,96.9440011 243.712,96.72 L243.712,95.278 C243.712,94.9233316 243.702667,94.6223346 243.684,94.375 C243.665333,94.1276654 243.637334,93.9106676 243.6,93.724 C243.786668,93.7706669 243.949999,93.8033332 244.09,93.822 C244.230001,93.8406668 244.374666,93.8453334 244.524,93.836 C244.645334,93.8173332 244.713,93.8406663 244.727,93.906 C244.741,93.9713337 244.696667,94.0366663 244.594,94.102 L244.594,94.102 Z M237.972,94.2 C237.645332,94.2186668 237.349001,94.2349999 237.083,94.249 C236.816999,94.2630001 236.576668,94.2793332 236.362,94.298 L236.362,93.5 C236.744669,93.5373335 237.192664,93.5653332 237.706,93.584 C238.219336,93.6026668 238.830663,93.612 239.54,93.612 C240.25867,93.612 240.872331,93.6026668 241.381,93.584 C241.889669,93.5653332 242.335331,93.5373335 242.718,93.5 L242.718,94.298 C242.307331,94.2513331 241.822003,94.2233334 241.262,94.214 L241.262,96.44 C241.495334,96.44 241.695999,96.4353334 241.864,96.426 C242.032001,96.4166666 242.185999,96.4096667 242.326,96.405 C242.466001,96.4003333 242.598999,96.3933334 242.725,96.384 C242.851001,96.3746666 242.988666,96.3606668 243.138,96.342 L243.138,97.182 C242.988666,97.1633332 242.851001,97.1493334 242.725,97.14 C242.598999,97.1306666 242.466001,97.1213334 242.326,97.112 C242.185999,97.1026666 242.032001,97.0956667 241.864,97.091 C241.695999,97.0863333 241.495334,97.084 241.262,97.084 C241.262,97.4106683 241.264333,97.6976654 241.269,97.945 C241.273667,98.1923346 241.280667,98.4163323 241.29,98.617 C241.299333,98.8176677 241.311,99.0113324 241.325,99.198 C241.339,99.3846676 241.36,99.5806656 241.388,99.786 L240.366,99.786 C240.394,99.5806656 240.415,99.3823343 240.429,99.191 C240.443,98.9996657 240.454667,98.8036677 240.464,98.603 C240.473333,98.4023323 240.480333,98.1806679 240.485,97.938 C240.489667,97.6953321 240.492,97.4106683 240.492,97.084 L238.644,97.084 C238.597333,97.4853353 238.527334,97.8446651 238.434,98.162 C238.340666,98.4793349 238.219334,98.773332 238.07,99.044 C237.920666,99.314668 237.743334,99.5736654 237.538,99.821 C237.332666,100.068335 237.090001,100.322665 236.81,100.584 C236.567332,100.331999 236.268668,100.136001 235.914,99.996 C236.194001,99.8186658 236.441332,99.6390009 236.656,99.457 C236.870668,99.2749991 237.059666,99.0720011 237.223,98.848 C237.386334,98.6239989 237.519333,98.3696681 237.622,98.085 C237.724667,97.8003319 237.804,97.4713352 237.86,97.098 C237.449331,97.098 237.083002,97.1049999 236.761,97.119 C236.438998,97.1330001 236.138001,97.1539999 235.858,97.182 L235.858,96.342 C236.016667,96.3606668 236.163666,96.3746666 236.299,96.384 C236.434334,96.3933334 236.578999,96.4003333 236.733,96.405 C236.887001,96.4096667 237.059666,96.4166666 237.251,96.426 C237.442334,96.4353334 237.673332,96.44 237.944,96.44 C237.972,96.1319985 237.988333,95.7936685 237.993,95.425 C237.997667,95.0563315 237.990667,94.6480022 237.972,94.2 L237.972,94.2 Z M240.492,94.2 C240.221332,94.2 239.929668,94.1976667 239.617,94.193 C239.304332,94.1883333 239.008001,94.186 238.728,94.186 C238.746667,94.6340022 238.753667,95.0423315 238.749,95.411 C238.744333,95.7796685 238.732667,96.1226651 238.714,96.44 L240.492,96.44 L240.492,94.2 Z" id="页面逻辑原型" fill="#70777F" sketch:type="MSShapeGroup"></path>
            </g>
        </g>
    </g>
</svg>